HIERARCHY
ROOT Root
{
  OFFSET 0.0 0.0 0.0
  CHANNELS 6 Xposition Yposition Zposition Zrotation Yrotation Xrotation
  JOINT Hips
  {
    OFFSET 0.0 100.0 0.0
    CHANNELS 6 Xposition Yposition Zposition Zrotation Yrotation Xrotation
    JOINT Spine1
    {
      OFFSET 5.003913 -0.037094 -0.013727
      CHANNELS 3 Zrotation Yrotation Xrotation
      JOINT Spine2
      {
        OFFSET 7.125363 -1e-06 0.0
        CHANNELS 3 Zrotation Yrotation Xrotation
        JOINT Chest
        {
          OFFSET 7.594027 1e-06 0.0
          CHANNELS 3 Zrotation Yrotation Xrotation
          JOINT Neck1
          {
            OFFSET 26.313086 -0.460272 -0.181672
            CHANNELS 3 Zrotation Yrotation Xrotation
            JOINT Neck2
            {
              OFFSET 8.045911 0.0 0.0
              CHANNELS 3 Zrotation Yrotation Xrotation
              JOINT Head
              {
                OFFSET 6.432774 0.0 0.0
                CHANNELS 3 Zrotation Yrotation Xrotation
                JOINT HeadEnd
                {
                  OFFSET 16.169773 0.06451 0.00362
                  CHANNELS 3 Zrotation Yrotation Xrotation
                }
                JOINT Jaw
                {
                  OFFSET 0.108741 3.12938 0.002639
                  CHANNELS 3 Zrotation Yrotation Xrotation
                }
                JOINT LeftEye
                {
                  OFFSET 4.45173 8.166359 3.206392
                  CHANNELS 3 Zrotation Yrotation Xrotation
                }
                JOINT RightEye
                {
                  OFFSET 4.436895 8.135758 -3.222429
                  CHANNELS 3 Zrotation Yrotation Xrotation
                }
              }
            }
          }
          JOINT LeftShoulder
          {
            OFFSET 23.218927 5.195579 1.621656
            CHANNELS 3 Zrotation Yrotation Xrotation
            JOINT LeftArm
            {
              OFFSET 15.902118 2e-06 -2e-06
              CHANNELS 3 Zrotation Yrotation Xrotation
              JOINT LeftForeArm
              {
                OFFSET 28.739307 0.0 -1e-06
                CHANNELS 3 Zrotation Yrotation Xrotation
                JOINT LeftHand
                {
                  OFFSET 27.093981 -4e-06 0.0
                  CHANNELS 3 Zrotation Yrotation Xrotation
                  JOINT LeftHandThumb1
                  {
                    OFFSET 2.276781 3.380274 0.83384
                    CHANNELS 3 Zrotation Yrotation Xrotation
                    JOINT LeftHandThumb2
                    {
                      OFFSET 4.705309 -1e-06 -1e-06
                      CHANNELS 3 Zrotation Yrotation Xrotation
                      JOINT LeftHandThumb3
                      {
                        OFFSET 2.798515 0.0 3e-06
                        CHANNELS 3 Zrotation Yrotation Xrotation
                        JOINT LeftHandThumbEnd
                        {
                          OFFSET 3.180793 4e-06 -4e-06
                          CHANNELS 3 Zrotation Yrotation Xrotation
                        }
                      }
                    }
                  }
                  JOINT LeftHandIndex1
                  {
                    OFFSET 3.247786 2.352677 0.137192
                    CHANNELS 3 Zrotation Yrotation Xrotation
                    JOINT LeftHandIndex2
                    {
                      OFFSET 6.367095 1e-06 0.0
                      CHANNELS 3 Zrotation Yrotation Xrotation
                      JOINT LeftHandIndex3
                      {
                        OFFSET 3.662364 0.0 0.0
                        CHANNELS 3 Zrotation Yrotation Xrotation
                        JOINT LeftHandIndex4
                        {
                          OFFSET 2.329242 4e-06 -4e-06
                          CHANNELS 3 Zrotation Yrotation Xrotation
                          JOINT LeftHandIndexEnd
                          {
                            OFFSET 2.767823 1e-06 0.0
                            CHANNELS 3 Zrotation Yrotation Xrotation
                          }
                        }
                      }
                    }
                  }
                  JOINT LeftHandMiddle1
                  {
                    OFFSET 3.163612 0.945023 -0.406112
                    CHANNELS 3 Zrotation Yrotation Xrotation
                    JOINT LeftHandMiddle2
                    {
                      OFFSET 6.276789 3e-06 0.0
                      CHANNELS 3 Zrotation Yrotation Xrotation
                      JOINT LeftHandMiddle3
                      {
                        OFFSET 4.35652 -1e-06 4e-06
                        CHANNELS 3 Zrotation Yrotation Xrotation
                        JOINT LeftHandMiddle4
                        {
                          OFFSET 2.996877 0.0 8e-06
                          CHANNELS 3 Zrotation Yrotation Xrotation
                          JOINT LeftHandMiddleEnd
                          {
                            OFFSET 2.323256 3e-06 -4e-06
                            CHANNELS 3 Zrotation Yrotation Xrotation
                          }
                        }
                      }
                    }
                  }
                  JOINT LeftHandRing1
                  {
                    OFFSET 2.882606 -0.309162 0.107445
                    CHANNELS 3 Zrotation Yrotation Xrotation
                    JOINT LeftHandRing2
                    {
                      OFFSET 6.033198 0.0 4e-06
                      CHANNELS 3 Zrotation Yrotation Xrotation
                      JOINT LeftHandRing3
                      {
                        OFFSET 4.350578 3e-06 0.0
                        CHANNELS 3 Zrotation Yrotation Xrotation
                        JOINT LeftHandRing4
                        {
                          OFFSET 2.651321 2e-06 -7e-06
                          CHANNELS 3 Zrotation Yrotation Xrotation
                          JOINT LeftHandRingEnd
                          {
                            OFFSET 1.937663 1e-06 -4e-06
                            CHANNELS 3 Zrotation Yrotation Xrotation
                          }
                        }
                      }
                    }
                  }
                  JOINT LeftHandPinky1
                  {
                    OFFSET 2.865315 -1.525436 0.575687
                    CHANNELS 3 Zrotation Yrotation Xrotation
                    JOINT LeftHandPinky2
                    {
                      OFFSET 5.54936 1e-06 -8e-06
                      CHANNELS 3 Zrotation Yrotation Xrotation
                      JOINT LeftHandPinky3
                      {
                        OFFSET 3.070974 0.0 -4e-06
                        CHANNELS 3 Zrotation Yrotation Xrotation
                        JOINT LeftHandPinky4
                        {
                          OFFSET 1.549672 1e-06 0.0
                          CHANNELS 3 Zrotation Yrotation Xrotation
                          JOINT LeftHandPinkyEnd
                          {
                            OFFSET 1.952123 0.0 0.0
                            CHANNELS 3 Zrotation Yrotation Xrotation
                          }
                        }
                      }
                    }
                  }
                }
              }
            }
          }
          JOINT RightShoulder
          {
            OFFSET 23.161716 5.296122 -1.380114
            CHANNELS 3 Zrotation Yrotation Xrotation
            JOINT RightArm
            {
              OFFSET -16.027195 -2e-06 1.1e-05
              CHANNELS 3 Zrotation Yrotation Xrotation
              JOINT RightForeArm
              {
                OFFSET -28.736639 4e-06 2e-06
                CHANNELS 3 Zrotation Yrotation Xrotation
                JOINT RightHand
                {
                  OFFSET -27.133619 6e-06 0.0
                  CHANNELS 3 Zrotation Yrotation Xrotation
                  JOINT RightHandThumb1
                  {
                    OFFSET -2.274328 -3.351035 -0.83067
                    CHANNELS 3 Zrotation Yrotation Xrotation
                    JOINT RightHandThumb2
                    {
                      OFFSET -4.703594 -3e-06 2e-06
                      CHANNELS 3 Zrotation Yrotation Xrotation
                      JOINT RightHandThumb3
                      {
                        OFFSET -2.794935 -4e-06 -3e-06
                        CHANNELS 3 Zrotation Yrotation Xrotation
                        JOINT RightHandThumbEnd
                        {
                          OFFSET -3.183852 4e-06 1e-06
                          CHANNELS 3 Zrotation Yrotation Xrotation
                        }
                      }
                    }
                  }
                  JOINT RightHandIndex1
                  {
                    OFFSET -3.253496 -2.33755 -0.127667
                    CHANNELS 3 Zrotation Yrotation Xrotation
                    JOINT RightHandIndex2
                    {
                      OFFSET -6.344434 0.0 0.0
                      CHANNELS 3 Zrotation Yrotation Xrotation
                      JOINT RightHandIndex3
                      {
                        OFFSET -3.654871 0.0 -8e-06
                        CHANNELS 3 Zrotation Yrotation Xrotation
                        JOINT RightHandIndex4
                        {
                          OFFSET -2.327586 -1e-06 0.0
                          CHANNELS 3 Zrotation Yrotation Xrotation
                          JOINT RightHandIndexEnd
                          {
                            OFFSET -2.770001 3e-06 8e-06
                            CHANNELS 3 Zrotation Yrotation Xrotation
                          }
                        }
                      }
                    }
                  }
                  JOINT RightHandMiddle1
                  {
                    OFFSET -3.168223 -0.944764 0.411762
                    CHANNELS 3 Zrotation Yrotation Xrotation
                    JOINT RightHandMiddle2
                    {
                      OFFSET -6.266691 -1e-06 -4e-06
                      CHANNELS 3 Zrotation Yrotation Xrotation
                      JOINT RightHandMiddle3
                      {
                        OFFSET -4.348901 0.0 0.0
                        CHANNELS 3 Zrotation Yrotation Xrotation
                        JOINT RightHandMiddle4
                        {
                          OFFSET -3.00024 2e-06 -4e-06
                          CHANNELS 3 Zrotation Yrotation Xrotation
                          JOINT RightHandMiddleEnd
                          {
                            OFFSET -2.321477 -4e-06 -4e-06
                            CHANNELS 3 Zrotation Yrotation Xrotation
                          }
                        }
                      }
                    }
                  }
                  JOINT RightHandRing1
                  {
                    OFFSET -2.885654 0.293261 -0.119232
                    CHANNELS 3 Zrotation Yrotation Xrotation
                    JOINT RightHandRing2
                    {
                      OFFSET -6.032835 -1e-06 -4e-06
                      CHANNELS 3 Zrotation Yrotation Xrotation
                      JOINT RightHandRing3
                      {
                        OFFSET -4.33881 0.0 -4e-06
                        CHANNELS 3 Zrotation Yrotation Xrotation
                        JOINT RightHandRing4
                        {
                          OFFSET -2.654903 -4e-06 -4e-06
                          CHANNELS 3 Zrotation Yrotation Xrotation
                          JOINT RightHandRingEnd
                          {
                            OFFSET -1.935122 0.0 4e-06
                            CHANNELS 3 Zrotation Yrotation Xrotation
                          }
                        }
                      }
                    }
                  }
                  JOINT RightHandPinky1
                  {
                    OFFSET -2.866241 1.503904 -0.60527
                    CHANNELS 3 Zrotation Yrotation Xrotation
                    JOINT RightHandPinky2
                    {
                      OFFSET -5.553177 -2e-06 0.0
                      CHANNELS 3 Zrotation Yrotation Xrotation
                      JOINT RightHandPinky3
                      {
                        OFFSET -3.062664 -1e-06 -4e-06
                        CHANNELS 3 Zrotation Yrotation Xrotation
                        JOINT RightHandPinky4
                        {
                          OFFSET -1.546529 2e-06 4e-06
                          CHANNELS 3 Zrotation Yrotation Xrotation
                          JOINT RightHandPinkyEnd
                          {
                            OFFSET -1.952341 0.0 -4e-06
                            CHANNELS 3 Zrotation Yrotation Xrotation
                          }
                        }
                      }
                    }
                  }
                }
              }
            }
          }
        }
      }
    }
    JOINT LeftLeg
    {
      OFFSET -8.443107 2.567604 10.043214
      CHANNELS 3 Zrotation Yrotation Xrotation
      JOINT LeftShin
      {
        OFFSET 43.229198 1e-06 -1e-06
        CHANNELS 3 Zrotation Yrotation Xrotation
        JOINT LeftFoot
        {
          OFFSET 42.298611 1e-06 1e-06
          CHANNELS 3 Zrotation Yrotation Xrotation
          JOINT LeftToeBase
          {
            OFFSET 14.165858 1e-06 0.0
            CHANNELS 3 Zrotation Yrotation Xrotation
            JOINT LeftToeEnd
            {
              OFFSET 6.7141 -0.234461 0.0
              CHANNELS 3 Zrotation Yrotation Xrotation
            }
          }
        }
      }
    }
    JOINT RightLeg
    {
      OFFSET -8.303923 2.592729 -10.047278
      CHANNELS 3 Zrotation Yrotation Xrotation
      JOINT RightShin
      {
        OFFSET -43.369682 0.0 1e-06
        CHANNELS 3 Zrotation Yrotation Xrotation
        JOINT RightFoot
        {
          OFFSET -42.260784 4e-06 2e-06
          CHANNELS 3 Zrotation Yrotation Xrotation
          JOINT RightToeBase
          {
            OFFSET -14.222245 -2e-06 -1e-06
            CHANNELS 3 Zrotation Yrotation Xrotation
            JOINT RightToeEnd
            {
              OFFSET -6.660062 0.232574 -2e-06
              CHANNELS 3 Zrotation Yrotation Xrotation
            }
          }
        }
      }
    }
  }
}
MOTION
Frames: 4
Frame Time: 0.03333333333333333
0.0 0.0 0.0 0.0 -0.0 0.0 -0.479286 90.603844 5.117489 92.059418 3.008883 90.067673 13.088165 1.047476 -0.066825 -6.100769 -0.174792 0.433639 31.179438 1.244079 -0.990766 26.783102 1.262203 2.752649 -2.506286 -1.152587 0.42112 -34.985477 -0.157966 0.040982 6e-06 0.0 0.0 -0.037791 -0.052949 0.205534 0.124017 -0.024582 0.242551 0.145624 -0.083204 0.16444 -10.995149 -63.079353 16.263905 82.203148 16.313341 -70.075851 29.026505 -0.65689 -0.538427 1.623632 2.709687 -46.788433 17.636629 -26.322731 52.411201 -19.46666 -14.395598 29.410395 -2e-06 -8.774822 -2e-06 15.837173 -18.532719 6.431185 -0.609776 -1.795654 -3.889328 -4.807089 -11.046811 -2.937851 4e-06 -20.976015 -1e-06 -5.019969 -25.033556 -4.031882 6e-06 -0.0 0.0 -10.634535 -5.68697 -3.565588 10.573275 -17.922951 -3.113901 3e-06 -13.821209 1e-06 -0.501777 -31.181505 -4.027016 -11.897029 -59.027691 7.535802 -13.982715 -7.150198 -2.875042 13.772731 -8.401493 -3.218242 0.347734 -34.211544 0.771655 -0.963029 -17.73337 2.621021 0.0 -0.0 0.0 -17.34642 -20.095217 -4.201783 21.757559 -1.638376 3.866428 1e-06 -6.338823 1e-06 -1.697589 -22.591745 -6.194007 -0.0 -6e-06 -2e-06 -166.016953 -74.850571 -0.272033 91.203506 40.96143 -30.210358 14.012798 0.912393 -0.032903 11.744246 14.739834 -46.578861 22.182121 -20.375898 49.933327 -16.701811 -16.743526 28.47653 -3e-06 -12.690601 -2e-06 15.104009 -17.458063 3.54957 -0.10592 -1.513855 -4.275882 -5.039042 -5.612873 -2.953557 3e-06 -11.020523 -1e-06 -6.1113 -15.895334 -3.840471 -0.0 -0.0 0.0 -10.283373 -5.680288 -4.341839 11.028293 -11.302402 -2.372631 -1.384269 -14.238583 -6.320123 -0.62544 -26.924191 -3.827602 -5.390157 -49.886932 -2.204843 -13.708524 -7.363479 -3.72094 18.141146 -14.052738 -3.242671 5e-06 -18.787271 -3e-06 -0.429713 -8.456047 2.555504 0.0 1e-06 2e-06 -15.923539 -20.094486 -5.473585 30.41921 -7.190823 1.735929 2e-06 -8.162927 -1e-06 -1.861901 -22.861473 -6.167945 0.0 -4e-06 -2e-06 163.740326 -18.608801 -10.001808 46.418629 -0.060935 0.401667 -95.373863 16.008966 -15.473835 -7.530348 1.26037 1.980741 -0.999999 0.0 -0.0 -29.13438 -15.045981 -1.148422 54.069973 -0.158349 0.814618 -90.16687 11.76281 -10.505054 -6.427164 0.853378 1.692011 -1.000003 0.0 -0.0 
0.0 0.0 0.0 0.0 -0.0 0.0 -0.369188 90.600639 5.18316 92.007362 2.917938 90.216217 13.150052 1.107289 -0.059526 -6.072896 -0.132715 0.431024 31.220621 1.230638 -1.050123 26.472364 1.379267 2.617999 -2.540862 -1.098867 0.508484 -35.01733 -0.065921 0.04063 6e-06 0.0 0.0 -0.056265 -0.05827 0.200871 0.131993 -0.027589 0.233161 0.157935 -0.091108 0.163085 -10.757243 -62.986317 16.075855 82.120728 16.828775 -69.891281 28.493135 -0.334251 -0.55831 1.807325 2.365948 -47.202801 17.63662 -26.322721 52.411179 -19.466648 -14.395596 29.410378 0.0 -8.774819 -2e-06 15.900622 -18.53981 6.472445 -0.609776 -1.795654 -3.889327 -4.807087 -11.046805 -2.937849 3e-06 -20.976006 1e-06 -5.019969 -25.033543 -4.031878 6e-06 -0.0 -1e-06 -10.634531 -5.686968 -3.565587 10.573269 -17.922945 -3.113899 2e-06 -13.821203 1e-06 -0.50178 -31.181494 -4.027013 -11.925073 -59.13129 7.570456 -13.98271 -7.150197 -2.875041 13.772723 -8.401486 -3.218239 0.347731 -34.211533 0.771656 -0.96303 -17.733362 2.621019 0.0 0.0 0.0 -17.346413 -20.095211 -4.201779 21.757551 -1.638373 3.866428 1e-06 -6.338821 1e-06 -1.697591 -22.591743 -6.194004 0.0 -3e-06 -2e-06 -165.470413 -74.970192 -0.699167 91.17408 41.3783 -30.091587 13.646299 0.955978 -0.099144 11.802094 14.427958 -47.048111 22.182112 -20.375881 49.933308 -16.701807 -16.743525 28.476522 -1e-06 -12.690598 -1e-06 15.158804 -17.636536 3.565749 -0.105919 -1.513855 -4.275881 -5.039041 -5.612872 -2.953556 4e-06 -11.020517 -2e-06 -6.111297 -15.89533 -3.840471 0.0 1e-06 0.0 -10.283368 -5.680289 -4.341838 11.028289 -11.302399 -2.372633 -1.38427 -14.238577 -6.32012 -0.625438 -26.924183 -3.827603 -5.281833 -49.861023 -2.277288 -13.708522 -7.363474 -3.72094 18.141146 -14.052734 -3.242673 5e-06 -18.787266 -5e-06 -0.429712 -8.456041 2.555502 0.0 -1e-06 1e-06 -15.923532 -20.094479 -5.473586 30.419207 -7.190823 1.735926 1e-06 -8.162925 0.0 -1.861901 -22.861467 -6.167942 0.0 -4e-06 -2e-06 163.541214 -18.521799 -9.740438 46.571125 -0.058806 0.439089 -95.508827 15.981 -15.432379 -7.573038 1.243485 1.985989 -0.999998 -0.0 -0.0 -29.156824 -15.010051 -1.035052 54.068981 -0.167436 0.778593 -90.152344 11.473395 -10.743427 -6.367868 0.823215 1.695138 -1.000003 0.0 0.0 
0.0 0.0 0.0 0.0 -0.0 0.0 -0.321188 90.526352 5.178254 91.953552 2.788665 90.332016 13.219395 1.136798 -0.04874 -6.019618 -0.114268 0.415786 31.27054 1.228359 -1.089409 26.124725 1.449954 2.530279 -2.578833 -1.066238 0.516211 -35.111336 -0.031302 0.052746 7e-06 -0.0 -0.0 -0.061584 -0.059755 0.193393 0.120035 -0.032111 0.221933 0.149464 -0.089807 0.158025 -10.452847 -63.023285 15.935836 81.926361 17.476189 -69.776016 28.131393 -0.138659 -0.545121 1.827586 2.045564 -47.487869 17.636621 -26.322739 52.411213 -19.466665 -14.395602 29.410402 -2e-06 -8.774823 -1e-06 15.968489 -18.560184 6.481542 -0.609776 -1.795653 -3.889329 -4.807089 -11.046813 -2.93785 3e-06 -20.976021 -0.0 -5.019972 -25.03356 -4.031881 6e-06 -0.0 -0.0 -10.634535 -5.686971 -3.565588 10.573272 -17.922951 -3.113901 2e-06 -13.821212 1e-06 -0.501779 -31.181505 -4.027017 -11.900747 -59.2439 7.540766 -13.982713 -7.150198 -2.875043 13.772729 -8.401492 -3.218243 0.347731 -34.211555 0.771656 -0.96303 -17.733374 2.62102 0.0 -0.0 -0.0 -17.34642 -20.095222 -4.201782 21.757557 -1.638373 3.866426 1e-06 -6.338824 1e-06 -1.697589 -22.591745 -6.194007 -0.0 -6e-06 -2e-06 -164.594101 -75.049438 -1.566752 90.968803 41.730049 -30.245031 13.447495 0.933506 -0.151852 11.609274 14.269374 -47.218777 22.182117 -20.375898 49.933331 -16.701818 -16.74353 28.476536 -3e-06 -12.690604 -1e-06 15.19151 -17.724926 3.551212 -0.105919 -1.513856 -4.275882 -5.039042 -5.612873 -2.953557 4e-06 -11.020523 -2e-06 -6.111299 -15.895336 -3.84047 0.0 -1e-06 0.0 -10.283372 -5.680289 -4.34184 11.028296 -11.302405 -2.372633 -1.384269 -14.238585 -6.320123 -0.625438 -26.924191 -3.827603 -5.226902 -49.846413 -2.347818 -13.708528 -7.363477 -3.72094 18.141153 -14.052742 -3.242676 5e-06 -18.787271 -3e-06 -0.429712 -8.456045 2.555504 0.0 -0.0 1e-06 -15.923536 -20.094486 -5.473585 30.419218 -7.190822 1.735926 3e-06 -8.162926 1e-06 -1.861903 -22.861473 -6.167942 1e-06 -3e-06 -2e-06 163.160858 -18.5373 -9.52253 46.919247 -0.066003 0.461143 -95.666878 15.959388 -15.327955 -7.547007 1.231622 1.992608 -0.999998 0.0 -0.0 -29.35033 -15.01858 -1.011777 54.275616 -0.176553 0.761301 -90.218346 11.245494 -10.90341 -6.30635 0.794841 1.691813 -1.000002 0.0 0.0 
0.0 0.0 0.0 0.0 -0.0 0.0 -0.282985 90.416977 5.16627 91.885139 2.641656 90.429375 13.300175 1.153205 -0.029369 -5.970185 -0.105043 0.395278 31.309156 1.225999 -1.112833 25.75392 1.468106 2.489294 -2.592069 -1.040573 0.494809 -35.317917 -0.020883 0.054937 4e-06 -0.0 -0.0 -0.059252 -0.057903 0.18472 0.113247 -0.034387 0.209985 0.144256 -0.084148 0.151742 -10.173755 -63.146725 15.861718 81.682053 18.182112 -69.70845 27.899496 -0.133436 -0.535367 1.713188 1.882318 -47.631897 17.636633 -26.322737 52.411213 -19.466665 -14.3956 29.410395 -1e-06 -8.774822 -2e-06 16.033892 -18.561911 6.471988 -0.609776 -1.795652 -3.889329 -4.80709 -11.046813 -2.93785 3e-06 -20.976019 0.0 -5.019972 -25.03356 -4.031882 6e-06 0.0 -0.0 -10.634536 -5.686971 -3.565588 10.573276 -17.922951 -3.113901 2e-06 -13.821211 1e-06 -0.501778 -31.181505 -4.027017 -11.908739 -59.354931 7.543792 -13.982716 -7.150198 -2.875043 13.772731 -8.401495 -3.218242 0.347732 -34.211555 0.771657 -0.963029 -17.73337 2.62102 0.0 0.0 -0.0 -17.346422 -20.095217 -4.201783 21.757566 -1.638375 3.866428 1e-06 -6.338825 1e-06 -1.697591 -22.591749 -6.194007 0.0 -5e-06 -2e-06 -163.691376 -75.101112 -2.48964 90.661346 42.065662 -30.408915 13.357849 0.902075 -0.170079 11.247287 14.258135 -47.342785 22.182112 -20.375898 49.933327 -16.701817 -16.74353 28.476536 -3e-06 -12.690603 0.0 15.209145 -17.744913 3.54171 -0.105919 -1.513857 -4.275882 -5.039042 -5.612873 -2.953557 4e-06 -11.020525 -2e-06 -6.1113 -15.895334 -3.840471 0.0 -1e-06 0.0 -10.28337 -5.68029 -4.341839 11.028296 -11.302404 -2.372633 -1.384269 -14.238583 -6.320122 -0.625439 -26.924192 -3.827603 -5.185718 -49.835133 -2.413312 -13.708527 -7.363477 -3.72094 18.14115 -14.052739 -3.242676 5e-06 -18.787275 -4e-06 -0.429712 -8.456045 2.555502 0.0 -2e-06 -0.0 -15.923538 -20.094486 -5.473585 30.419218 -7.190823 1.735925 3e-06 -8.162927 0.0 -1.861904 -22.861469 -6.167942 1e-06 -3e-06 -2e-06 162.681564 -18.625185 -9.348764 47.431686 -0.079087 0.469505 -95.81366 15.968644 -15.232245 -7.516174 1.242845 2.000391 -0.999999 0.0 0.0 -29.603027 -15.008199 -0.973696 54.543884 -0.184519 0.747277 -90.356606 10.983211 -11.008184 -6.281098 0.773625 1.685365 -1.000001 0.0 -0.0 
